# xmcd
#
# Track frame offsets: 
#        150
#        16787
#        36552
#        52187
#        72447
#
# Disc length: 1159 seconds
#
# Revision: 3
# Processed by: cddbd v1.5PL3 Copyright (c) Steve Scherf et al.
# Submitted via: ExactAudioCopy v0.95a4
#
DISCID=44048505
DTITLE=tetrapletrap - Filmcut in the Siesta
DYEAR=2003
DGENRE=Jazz
TTITLE0=Vector
TTITLE1=Untitled Melody
TTITLE2=Bent Bossa Beat
TTITLE3=Filmcut 100
TTITLE4=Lie! Lie! Lie!
EXTD=
EXTT0=
EXTT1=
EXTT2=
EXTT3=
EXTT4=
PLAYORDER=
